<?xml version="1.0" encoding="utf-8"?>
<!-- Generator: Adobe Illustrator 16.0.0, SVG Export Plug-In . SVG Version: 6.00 Build 0)  -->
<!DOCTYPE svg PUBLIC "-//W3C//DTD SVG 1.1//EN" "http://www.w3.org/Graphics/SVG/1.1/DTD/svg11.dtd">
<svg version="1.1" id="Layer_1" xmlns="http://www.w3.org/2000/svg" xmlns:xlink="http://www.w3.org/1999/xlink" x="0px" y="0px"
	 width="317px" height="67px" viewBox="0 0 317 67" enable-background="new 0 0 317 67" xml:space="preserve">
<g>
	<g>
		<g>
			<path fill="#333333" d="M35.82,66.359c-0.951,0-1.893-0.184-2.755-0.578c-2.476-1.1-3.958-3.6-3.958-6.686V39.807
				c0-0.559,0.106-5.548,3.786-8.681C35.5,28.902,53.642,15.089,54.41,14.501c1.311-1.002,3.188-0.742,4.182,0.564
				c1.002,1.312,0.75,3.188-0.564,4.184c-6.484,4.939-19.275,14.727-21.265,16.42c-1.343,1.15-1.67,3.395-1.681,4.16v18.479
				c0,1.236,0.688,2.58,2.271,1.186c1.857-1.627,11.416-10.838,15.627-14.867c0.347-0.334,1.02-0.869,0.915-2.469v-7.88
				c0-1.65,1.335-2.985,2.985-2.985c1.648,0,2.987,1.335,2.987,2.985V44.1c0,1.539-0.396,2.639-1.369,3.504
				c-0.667,0.596-15.323,14.701-17.72,16.855C39.396,65.699,37.593,66.359,35.82,66.359z"/>
		</g>
		<path fill="#BF1F3A" d="M49.69,9.941L32.532,1.826c-0.067-0.033-0.134-0.06-0.206-0.091c-0.512-0.189-5.118-1.821-9.198,0.492
			C20.152,3.913,7.145,11.57,6.603,11.89c-1.132,0.658-2.673,2.06-3.856,4.188c-0.012,0.017-0.026,0.027-0.038,0.047
			c-0.008,0.023-0.015,0.045-0.03,0.073C1.709,17.986,1,20.269,1,23.069v18.876c0,4.883,3.069,8.018,4.972,9.164L22.148,62.08
			c0.511,0.342,1.097,0.514,1.674,0.514c0.953,0,1.896-0.459,2.469-1.309c0.927-1.367,0.574-3.221-0.791-4.15L9.247,46.113
			c-0.036-0.025-0.117-0.074-0.15-0.094c-0.218-0.137-2.126-1.393-2.126-4.074v-16.69c0.235-2.211,1.591-2.037,2.345-1.754
			l15.866,9.281c0.476,0.278,0.996,0.416,1.518,0.416c1.021,0,2.018-0.523,2.567-1.465c0.845-1.422,0.376-3.251-1.043-4.094
			l-15.149-8.854c0.021,0.005,0.046,0.017,0.063,0.018c-2.234-1.815-0.564-3.387,0.157-3.926c4.223-2.479,10.819-6.344,12.772-7.454
			c1.362-0.767,3.341-0.369,4.068-0.126l17.022,8.051c1.501,0.699,3.276,0.055,3.973-1.438C51.825,12.414,51.181,10.64,49.69,9.941z
			"/>
	</g>
	<g>
		<path fill="#BF1F3A" d="M72.199,7.043h22.785v5.636H78.9v6.523h14.76v5.205H78.9v7.464h17.576l-3.694,5.63H72.199V7.043z"/>
		<path fill="#BF1F3A" d="M105.425,25.902l-7.253-10.455h6.912l3.884,5.762l3.839-5.762h6.7l-7.255,10.326l8.15,11.729h-6.914
			l-4.607-6.95l-4.605,6.95h-6.783L105.425,25.902z"/>
		<path fill="#BF1F3A" d="M122.908,15.447h5.76v2.816h0.086c1.494-2.388,3.84-3.414,6.57-3.414c6.912,0,10.025,5.59,10.025,11.863
			c0,5.889-3.198,11.395-9.685,11.395c-2.688,0-5.12-1.16-6.611-3.338h-0.085v9.154h-6.061V15.447z M139.29,26.542
			c0-3.543-1.407-7.129-5.288-7.129c-3.969,0-5.248,3.545-5.248,7.129c0,3.582,1.365,6.995,5.29,6.995
			C138.01,33.538,139.29,30.125,139.29,26.542z"/>
		<path fill="#BF1F3A" d="M154.065,27.951c0.169,3.883,2.004,5.587,5.419,5.587c2.428,0,4.393-1.495,4.779-2.861h5.333
			c-1.708,5.253-5.333,7.431-10.326,7.431c-6.954,0-11.263-4.783-11.263-11.608c0-6.613,4.567-11.65,11.263-11.65
			c7.51,0,11.181,6.316,10.706,13.102H154.065z M163.92,24.111c-0.557-3.076-1.879-4.697-4.822-4.697
			c-3.922,0-4.902,2.988-5.032,4.697H163.92z"/>
		<path fill="#BF1F3A" d="M173.636,15.447h5.757v4.098h0.087c1.153-2.773,4.012-4.695,7.038-4.695c0.468,0,0.896,0.089,1.322,0.215
			v5.633c-0.554-0.127-1.45-0.213-2.175-0.213c-4.479,0-5.974,3.155-5.974,7.082v9.936h-6.056V15.447z"/>
		<path fill="#BF1F3A" d="M197.659,15.447h4.435v5.078h-4.435v9.898c0,2.048,0.509,2.561,2.557,2.561
			c0.685,0,1.324-0.042,1.878-0.174v4.739c-1.027,0.166-2.349,0.217-3.543,0.217c-3.754,0-6.951-0.818-6.951-5.25v-11.99v-5.078
			V8.833h6.06V15.447z"/>
		<path fill="#BF1F3A" d="M240.956,34.048c-2.387,3.077-5.419,4.182-8.363,4.182c-9.385,0-14.973-7.038-14.973-15.829
			c0-9.045,5.588-16.081,14.973-16.081c6.231,0,12.161,3.794,12.842,10.748h-6.398c-0.812-3.413-3.241-5.118-6.443-5.118
			c-6.014,0-8.275,5.118-8.275,10.451c0,5.076,2.262,10.199,8.275,10.199c4.397,0,6.869-2.307,7.254-6.574h-6.741v-4.992h12.801
			v16.467h-4.267L240.956,34.048z"/>
		<path fill="#BF1F3A" d="M250.44,15.447h5.761v4.098h0.088c1.148-2.773,4.009-4.324,7.037-4.324c0.469,0,0.896,0.083,1.321,0.213
			v5.631c-0.553-0.131-1.451-0.213-2.175-0.213c-4.479,0-5.972,2.788-5.972,6.715v9.936h-6.061V15.447z"/>
		<path fill="#BF1F3A" d="M288.523,37.502h-5.758v-3.067h-0.129c-1.533,2.512-4.179,3.672-6.74,3.672
			c-6.443,0-8.062-3.63-8.062-9.092V15.447h6.058v12.461c0,3.625,1.024,5.417,3.883,5.417c3.285,0,4.693-1.835,4.693-6.313V15.447
			h6.056V37.502z"/>
		<path fill="#BF1F3A" d="M293.203,15.447h5.761v2.816h0.085c1.494-2.388,3.843-3.414,6.571-3.414c6.91,0,10.025,5.59,10.025,11.863
			c0,5.889-3.202,11.395-9.685,11.395c-2.688,0-5.121-1.16-6.611-3.338h-0.087v9.154h-6.06V15.447z M309.584,26.542
			c0-3.543-1.405-7.129-5.288-7.129c-3.968,0-5.247,3.545-5.247,7.129c0,3.582,1.365,6.995,5.289,6.995
			C308.308,33.538,309.584,30.125,309.584,26.542z"/>
		<rect x="205.569" y="22.273" fill="#BF1F3A" width="8.257" height="4.205"/>
	</g>
	<g>
		<path fill="#333333" d="M72.199,43.924h2.979v13.553h-2.979V43.924z"/>
		<path fill="#333333" d="M78.411,47.664h2.564v1.367h0.056c0.682-1.123,1.861-1.631,2.999-1.631c2.864,0,3.588,1.613,3.588,4.045
			v6.031H84.92v-5.543c0-1.609-0.451-2.412-1.724-2.412c-1.464,0-2.093,0.82-2.093,2.809v5.146h-2.692V47.664z"/>
		<path fill="#333333" d="M97.143,56.223h-0.033c-0.627,1.068-1.709,1.52-2.977,1.52c-2.966,0-4.406-2.523-4.406-5.258
			c0-2.643,1.459-5.084,4.346-5.084c1.157,0,2.293,0.49,2.9,1.461h0.041v-4.938h2.693v13.553h-2.564V56.223z M94.788,49.426
			c-1.763,0-2.37,1.543-2.37,3.133c0,1.537,0.705,3.152,2.37,3.152c1.773,0,2.321-1.555,2.321-3.168
			C97.109,50.943,96.538,49.426,94.788,49.426z"/>
		<path fill="#333333" d="M104.908,53.221c0.072,1.732,0.894,2.49,2.413,2.49c1.082,0,1.952-0.666,2.124-1.27h2.373
			c-0.76,2.334-2.373,3.301-4.595,3.301c-3.093,0-5.01-2.123-5.01-5.162c0-2.943,2.03-5.18,5.01-5.18
			c3.341,0,4.974,2.807,4.763,5.82H104.908z M109.297,51.52c-0.252-1.365-0.838-2.094-2.148-2.094c-1.744,0-2.184,1.334-2.24,2.094
			H109.297z"/>
		<path fill="#333333" d="M114.617,47.664h2.561v1.254h0.039c0.661-1.061,1.705-1.518,2.92-1.518c3.075,0,4.46,2.482,4.46,5.271
			c0,2.619-1.423,5.07-4.304,5.07c-1.197,0-2.279-0.516-2.946-1.482h-0.035v4.668h-2.694V47.664z M121.904,52.602
			c0-1.574-0.629-3.176-2.355-3.176c-1.762,0-2.332,1.584-2.332,3.176c0,1.59,0.605,3.109,2.354,3.109
			C121.334,55.711,121.904,54.191,121.904,52.602z"/>
		<path fill="#333333" d="M129.937,53.221c0.075,1.732,0.891,2.49,2.409,2.49c1.079,0,1.957-0.666,2.127-1.27h2.37
			c-0.756,2.334-2.37,3.301-4.592,3.301c-3.09,0-5.008-2.123-5.008-5.162c0-2.943,2.031-5.18,5.008-5.18
			c3.343,0,4.972,2.807,4.767,5.82H129.937z M134.319,51.52c-0.245-1.365-0.835-2.094-2.146-2.094c-1.743,0-2.183,1.334-2.237,2.094
			H134.319z"/>
		<path fill="#333333" d="M139.916,47.664h2.564v1.367h0.057c0.687-1.123,1.859-1.631,2.998-1.631c2.867,0,3.588,1.613,3.588,4.045
			v6.031h-2.693v-5.543c0-1.609-0.457-2.412-1.729-2.412c-1.461,0-2.087,0.82-2.087,2.809v5.146h-2.698V47.664z"/>
		<path fill="#333333" d="M158.821,56.223h-0.038c-0.628,1.068-1.707,1.52-2.977,1.52c-2.966,0-4.402-2.523-4.402-5.258
			c0-2.643,1.457-5.084,4.338-5.084c1.162,0,2.302,0.49,2.908,1.461h0.036v-4.938h2.694v13.553h-2.56V56.223z M156.47,49.426
			c-1.768,0-2.372,1.543-2.372,3.133c0,1.537,0.699,3.152,2.372,3.152c1.765,0,2.313-1.555,2.313-3.168
			C158.783,50.943,158.216,49.426,156.47,49.426z"/>
		<path fill="#333333" d="M166.537,53.221c0.073,1.732,0.892,2.49,2.408,2.49c1.084,0,1.956-0.666,2.126-1.27h2.371
			c-0.759,2.334-2.371,3.301-4.595,3.301c-3.089,0-5.005-2.123-5.005-5.162c0-2.943,2.026-5.18,5.005-5.18
			c3.347,0,4.979,2.807,4.77,5.82H166.537z M170.922,51.52c-0.247-1.365-0.836-2.094-2.149-2.094c-1.745,0-2.18,1.334-2.235,2.094
			H170.922z"/>
		<path fill="#333333" d="M176.134,47.664h2.567v1.367h0.054c0.685-1.123,1.858-1.631,2.999-1.631c2.862,0,3.587,1.613,3.587,4.045
			v6.031h-2.697v-5.543c0-1.609-0.457-2.412-1.727-2.412c-1.463,0-2.087,0.82-2.087,2.809v5.146h-2.696V47.664z"/>
		<path fill="#333333" d="M191.354,47.664h1.976v1.805h-1.976v4.857c0,0.914,0.229,1.141,1.14,1.141
			c0.305,0,0.589-0.014,0.836-0.078v2.107c-0.456,0.074-1.046,0.094-1.58,0.094c-1.666,0-3.089-0.363-3.089-2.336v-5.785v-1.805
			v-2.938h2.693V47.664z"/>
		<path fill="#333333" d="M208.84,46.434h-4.061v-2.51h11.106v2.51h-4.066v11.043h-2.979V46.434z"/>
		<path fill="#333333" d="M218.171,43.924h2.698v5.107h0.056c0.684-1.123,1.865-1.631,2.869-1.631c2.862,0,3.588,1.613,3.588,4.045
			v6.031h-2.697v-5.543c0-1.609-0.457-2.412-1.729-2.412c-1.459,0-2.087,0.82-2.087,2.809v5.146h-2.698V43.924z"/>
		<path fill="#333333" d="M232.757,46.148h-2.693v-2.225h2.693V46.148z M230.063,47.664h2.693v9.812h-2.693V47.664z"/>
		<path fill="#333333" d="M235.52,47.664h2.567v1.367h0.052c0.686-1.123,1.858-1.631,3.004-1.631c2.86,0,3.584,1.613,3.584,4.045
			v6.031h-2.696v-5.543c0-1.609-0.454-2.412-1.724-2.412c-1.464,0-2.091,0.82-2.091,2.809v5.146h-2.696V47.664z"/>
		<path fill="#333333" d="M247.615,43.924h2.69v7.271l3.4-3.531h3.189l-3.696,3.604l4.112,6.209h-3.265l-2.688-4.387l-1.053,1.006
			v3.381h-2.69V43.924z"/>
		<path fill="#333333" d="M261.792,51.137h5.712v2.316h-5.712V51.137z"/>
		<path fill="#333333" d="M273.654,46.434h-4.062v-2.51h11.104v2.51h-4.066v11.043h-2.976V46.434z"/>
		<path fill="#333333" d="M281.623,50.686c0.152-2.504,2.411-3.285,4.609-3.285c1.956,0,4.312,0.434,4.312,2.783v5.107
			c0,0.9,0.097,1.793,0.342,2.186h-2.733c-0.096-0.305-0.173-0.623-0.188-0.943c-0.856,0.887-2.091,1.209-3.306,1.209
			c-1.881,0-3.343-0.93-3.343-2.938c0.042-4.463,6.648-2.068,6.532-4.271c0-1.139-0.799-1.336-1.746-1.336
			c-1.043,0-1.688,0.422-1.783,1.488H281.623z M287.848,52.672c-0.456,0.406-1.405,0.418-2.235,0.57
			c-0.841,0.158-1.599,0.459-1.599,1.449c0,0.986,0.778,1.25,1.651,1.25c2.105,0,2.183-1.658,2.183-2.258V52.672z"/>
		<path fill="#333333" d="M293.658,47.664h2.56v1.367h0.061c0.68-1.123,1.858-1.631,2.996-1.631c2.866,0,3.589,1.613,3.589,4.045
			v6.031h-2.698v-5.543c0-1.609-0.454-2.412-1.727-2.412c-1.463,0-2.087,0.82-2.087,2.809v5.146h-2.693V47.664z"/>
		<path fill="#333333" d="M305.949,43.924h2.697v7.271l3.394-3.531h3.186l-3.698,3.604l4.118,6.209h-3.265l-2.693-4.387
			l-1.041,1.006v3.381h-2.697V43.924z"/>
	</g>
</g>
</svg>
